<svg width="60" height="60" viewBox="0 0 60 60" fill="none" xmlns="http://www.w3.org/2000/svg">
<path d="M30 0C21.8446 0 20.8282 0.0393799 17.6366 0.174397C14.4318 0.331916 12.264 0.828854 10.3513 1.57145C8.37855 2.34404 6.69834 3.3698 5.03875 5.03875C3.36792 6.69834 2.33279 8.37855 1.57145 10.3513C0.828854 12.264 0.331917 14.4318 0.174397 17.6366C0.0300038 20.8301 0 21.8446 0 30C0 38.1554 0.0393799 39.1718 0.174397 42.3634C0.331917 45.5588 0.828854 47.736 1.57145 49.6487C2.34404 51.6215 3.3698 53.3017 5.03875 54.9612C6.69834 56.6321 8.37855 57.6672 10.3513 58.4286C12.264 59.1618 14.4412 59.6681 17.6366 59.8256C20.8301 59.97 21.8446 60 30 60C38.1554 60 39.1718 59.9606 42.3634 59.8256C45.5588 59.6681 47.736 59.1599 49.6487 58.4286C51.6215 57.656 53.3017 56.6302 54.9612 54.9612C56.6321 53.3017 57.6672 51.6308 58.4286 49.6487C59.1618 47.736 59.6681 45.5588 59.8256 42.3634C59.97 39.1699 60 38.1554 60 30C60 21.8446 59.9606 20.8282 59.8256 17.6366C59.6681 14.4412 59.1599 12.2528 58.4286 10.3513C57.656 8.37855 56.6302 6.69834 54.9612 5.03875C53.3017 3.36792 51.6308 2.33279 49.6487 1.57145C47.736 0.828854 45.5588 0.331916 42.3634 0.174397C39.1699 0.0300038 38.1554 0 30 0ZM30 5.40068C38.0091 5.40068 38.9655 5.44005 42.1309 5.57507C45.0506 5.71196 46.6408 6.19952 47.6966 6.61208C49.1049 7.15777 50.0894 7.80285 51.1545 8.85673C52.199 9.90124 52.8441 10.897 53.3898 12.3053C53.8023 13.361 54.2899 14.9512 54.4268 17.871C54.5618 21.0364 54.6012 21.9946 54.6012 30.0019C54.6012 38.0091 54.5618 38.9674 54.4156 42.1328C54.258 45.0525 53.7705 46.6427 53.3598 47.6985C52.7916 49.1068 52.1578 50.0913 51.1114 51.1564C50.0556 52.2009 49.0505 52.846 47.6535 53.3917C46.6108 53.8042 44.9981 54.2918 42.0671 54.4287C38.8849 54.5637 37.9472 54.6031 29.9175 54.6031C21.8877 54.6031 20.952 54.5637 17.766 54.4174C14.8462 54.2599 13.2354 53.7723 12.1796 53.3617C10.7545 52.7935 9.77747 52.1596 8.73109 51.1133C7.67533 50.0575 7.004 49.0524 6.48644 47.6553C6.06638 46.6127 5.58632 45 5.43068 42.069C5.32379 38.9242 5.27316 37.9491 5.27316 29.9569C5.27316 21.9684 5.32379 20.9914 5.43068 17.8072C5.58632 14.8762 6.06638 13.2673 6.48644 12.2209C7.004 10.7938 7.67721 9.81873 8.73109 8.76297C9.7756 7.71846 10.7545 7.04338 12.1796 6.51456C13.2354 6.10389 14.8069 5.61633 17.7378 5.47006C20.9201 5.35567 21.8577 5.31441 29.8762 5.31441L30 5.40068ZM30 14.6025C21.4846 14.6025 14.5987 21.4977 14.5987 30.0037C14.5987 38.5192 21.4939 45.405 30 45.405C38.5154 45.405 45.4013 38.5098 45.4013 30.0037C45.4013 21.4883 38.5061 14.6025 30 14.6025ZM30 40.0044C24.4718 40.0044 19.9994 35.5319 19.9994 30.0037C19.9994 24.4756 24.4718 20.0031 30 20.0031C35.5282 20.0031 40.0006 24.4756 40.0006 30.0037C40.0006 35.5319 35.5282 40.0044 30 40.0044ZM49.6225 13.9874C49.6225 15.9807 48.0004 17.5897 46.0164 17.5897C44.023 17.5897 42.4141 15.9789 42.4141 13.9874C42.4141 12.0053 44.0343 10.3925 46.0164 10.3925C47.9985 10.3925 49.6225 12.0053 49.6225 13.9874Z" fill="url(#paint0_linear_95_581)" fill-opacity="0.8"/>
<defs>
<linearGradient id="paint0_linear_95_581" x1="30" y1="0" x2="30" y2="60" gradientUnits="userSpaceOnUse">
<stop stop-color="#FF007A"/>
<stop offset="1" stop-color="#8F00FF" stop-opacity="0"/>
</linearGradient>
</defs>
</svg>
