<svg width="18" height="19" viewBox="0 0 18 19" fill="none" xmlns="http://www.w3.org/2000/svg">
<path d="M9.48437 15.8507C9.18327 15.6842 8.81774 15.6842 8.51665 15.8507L4.62337 18.0034C3.89281 18.4074 3.01815 17.7912 3.15252 16.9673L3.92 12.2614C3.9711 11.9481 3.87041 11.6291 3.64868 11.4019L0.359546 8.03193C-0.209007 7.44939 0.119473 6.46789 0.924132 6.34493L5.38189 5.66375C5.71148 5.61339 5.99429 5.40207 6.13601 5.10027L8.09518 0.927988C8.45518 0.161324 9.54567 0.161393 9.90558 0.928102L11.864 5.10017C12.0057 5.40202 12.2886 5.61339 12.6182 5.66376L17.0761 6.34497C17.8807 6.46792 18.2092 7.44933 17.6408 8.03189L14.3523 11.4019C14.1306 11.6291 14.0299 11.9481 14.0811 12.2614L14.8492 16.9672C14.9837 17.7911 14.109 18.4074 13.3784 18.0035L9.48437 15.8507Z" fill="white"/>
</svg>
