<svg width="65" height="60" viewBox="0 0 65 60" fill="none" xmlns="http://www.w3.org/2000/svg">
<path d="M64.8761 7.14879C62.4853 8.3391 59.9259 9.15802 57.2284 9.52941C59.9808 7.65398 62.0852 4.68743 63.0886 1.1534C60.5069 2.86044 57.6509 4.09689 54.6142 4.79585C52.193 1.85236 48.7317 0 44.8906 0C37.5273 0 31.5595 6.77509 31.5595 15.1257C31.5595 16.3276 31.6875 17.481 31.9089 18.5744C20.8325 17.9862 11.0134 11.9423 4.44641 2.812C3.29266 5.03576 2.63656 7.61938 2.63656 10.4314C2.63656 15.6932 4.99484 20.3068 8.55969 23.0196C6.38016 22.9481 4.32859 22.263 2.53094 21.135V21.3172C2.53094 28.6551 7.12156 34.7728 13.2153 36.1661C12.1042 36.5006 10.918 36.6943 9.71344 36.6943C8.85828 36.6943 8.04172 36.5998 7.22719 36.4291C8.94156 42.436 13.8491 46.8097 19.6991 46.9412C15.1511 50.9896 9.38641 53.4025 3.17484 53.4025C2.11656 53.4025 1.06031 53.3449 0 53.1995C5.92516 57.4902 12.9187 60 20.473 60C44.9841 60 58.3781 36.9435 58.3781 16.9758C58.3781 16.3391 58.3781 15.6909 58.3355 15.0404C60.9497 12.925 63.2125 10.2445 65 7.20646L64.8761 7.14879Z" fill="#148EFF"/>
</svg>
